<svg width="441" height="125" viewBox="0 0 441 125" fill="none" xmlns="http://www.w3.org/2000/svg">
<path d="M30.4895 49.04V10.952H6.3695V6.56003H59.0015V10.952H34.8095V49.04H30.4895ZM38.7695 53.072V14.984H62.9615V2.52803H2.4095V14.984H26.5295V53.072H38.7695ZM0.609497 16.784V0.728027H64.7615L71.7455 8.14403V23.768H47.5535V61.856H32.1455L24.7295 54.872V23.768H8.0255L0.609497 16.784Z" fill="#38582F"/>
<path d="M83.7616 6.56003H88.0816V49.04H83.7616V6.56003ZM92.0416 2.52803H79.8016V53.072H92.0416V2.52803ZM78.0016 54.872V0.728027H93.8416L100.826 8.14403V61.856H85.4176L78.0016 54.872Z" fill="#38582F"/>
<path d="M143.212 44.648C145.996 44.648 148.588 44.36 150.988 43.784C153.436 43.16 155.548 42.2 157.324 40.904C159.148 39.56 160.564 37.832 161.572 35.72C162.58 33.56 163.084 30.92 163.084 27.8V6.56003H167.692V27.8C167.692 32.168 166.972 35.744 165.532 38.528C164.092 41.264 162.148 43.424 159.7 45.008C157.252 46.544 154.372 47.6 151.06 48.176C147.796 48.752 144.34 49.04 140.692 49.04C138.58 49.04 136.444 48.944 134.284 48.752C132.172 48.56 130.132 48.176 128.164 47.6C126.196 47.024 124.324 46.184 122.548 45.08C120.82 43.928 119.284 42.416 117.94 40.544L122.692 37.664C123.988 39.248 125.428 40.496 127.012 41.408C128.596 42.32 130.276 43.016 132.052 43.496C133.828 43.976 135.652 44.288 137.524 44.432C139.396 44.576 141.292 44.648 143.212 44.648ZM140.692 40.616C137.236 40.616 134.044 39.992 131.116 38.744C128.236 37.448 125.788 35.36 123.772 32.48L112.468 39.248C114.244 42.416 116.236 44.912 118.444 46.736C120.652 48.56 123.052 49.952 125.644 50.912C128.236 51.824 130.996 52.424 133.924 52.712C136.852 52.952 139.948 53.072 143.212 53.072C147.388 53.072 151.204 52.616 154.66 51.704C158.116 50.744 161.092 49.256 163.588 47.24C166.132 45.224 168.1 42.632 169.492 39.464C170.884 36.248 171.58 32.36 171.58 27.8V2.52803H159.124V27.8C159.124 30.68 158.596 32.96 157.54 34.64C156.484 36.32 155.092 37.616 153.364 38.528C151.636 39.392 149.668 39.968 147.46 40.256C145.252 40.496 142.996 40.616 140.692 40.616ZM140.692 38.816C142.756 38.816 144.772 38.696 146.74 38.456C148.756 38.216 150.532 37.736 152.068 37.016C153.652 36.248 154.924 35.144 155.884 33.704C156.844 32.216 157.324 30.248 157.324 27.8V0.728027H173.38L180.364 8.14403V35C180.364 39.848 179.62 43.976 178.132 47.384C176.692 50.792 174.628 53.552 171.94 55.664C169.3 57.824 166.132 59.384 162.436 60.344C158.788 61.352 154.78 61.856 150.412 61.856C147.724 61.856 145.108 61.76 142.564 61.568C140.068 61.424 137.644 61.064 135.292 60.488C132.988 59.912 130.756 59.072 128.596 57.968C126.484 56.912 124.492 55.448 122.62 53.576C120.604 51.752 118.924 50.144 117.58 48.752C116.284 47.36 115.18 46.088 114.268 44.936C113.356 43.784 112.588 42.704 111.964 41.696C111.292 40.688 110.644 39.632 110.02 38.528L124.204 30.104C124.54 30.632 124.924 31.16 125.356 31.688C125.74 32.168 126.172 32.696 126.652 33.272C127.18 33.848 127.78 34.4 128.452 34.928C130.18 36.272 132.1 37.256 134.212 37.88C136.372 38.504 138.532 38.816 140.692 38.816Z" fill="#38582F"/>
<path d="M201.535 6.56003V27.8C201.535 30.92 202.038 33.56 203.046 35.72C204.054 37.832 205.447 39.56 207.223 40.904C209.047 42.2 211.159 43.16 213.559 43.784C215.959 44.36 218.574 44.648 221.406 44.648H229.327C232.111 44.648 234.702 44.36 237.102 43.784C239.55 43.16 241.662 42.2 243.438 40.904C245.262 39.56 246.678 37.832 247.686 35.72C248.742 33.56 249.271 30.92 249.271 27.8V6.56003H253.807V27.8C253.807 31.688 253.182 34.976 251.934 37.664C250.686 40.352 248.959 42.56 246.751 44.288C244.591 45.968 242.022 47.192 239.046 47.96C236.07 48.68 232.831 49.04 229.327 49.04H221.406C217.902 49.04 214.639 48.68 211.615 47.96C208.639 47.192 206.047 45.968 203.839 44.288C201.679 42.56 199.975 40.352 198.727 37.664C197.527 34.976 196.926 31.688 196.926 27.8V6.56003H201.535ZM192.966 27.8C192.966 32.36 193.663 36.248 195.055 39.464C196.447 42.632 198.39 45.224 200.886 47.24C203.43 49.256 206.43 50.744 209.886 51.704C213.39 52.616 217.23 53.072 221.406 53.072H229.327C233.503 53.072 237.319 52.616 240.775 51.704C244.279 50.744 247.279 49.256 249.775 47.24C252.319 45.224 254.286 42.632 255.678 39.464C257.07 36.248 257.767 32.36 257.767 27.8V2.52803H245.238V27.8C245.238 30.248 244.807 32.288 243.943 33.92C243.079 35.552 241.926 36.872 240.486 37.88C239.046 38.84 237.367 39.536 235.447 39.968C233.527 40.4 231.487 40.616 229.327 40.616H221.406C219.246 40.616 217.206 40.4 215.286 39.968C213.366 39.536 211.687 38.816 210.247 37.808C208.807 36.8 207.654 35.48 206.79 33.848C205.974 32.216 205.566 30.2 205.566 27.8V2.52803H192.966V27.8ZM191.167 0.728027H207.367L214.35 8.14403V35C214.35 35.528 214.35 36.032 214.35 36.512C214.398 36.992 214.47 37.448 214.566 37.88C216.582 38.504 218.862 38.816 221.406 38.816H229.327C231.199 38.816 232.974 38.648 234.654 38.312C236.382 37.928 237.894 37.304 239.19 36.44C240.486 35.576 241.518 34.448 242.286 33.056C243.054 31.664 243.438 29.912 243.438 27.8V0.728027H259.566L266.551 8.14403V35C266.551 39.848 265.807 43.976 264.319 47.384C262.831 50.792 260.766 53.552 258.126 55.664C255.486 57.824 252.318 59.384 248.622 60.344C244.926 61.352 240.895 61.856 236.527 61.856H228.607C226.159 61.856 223.783 61.736 221.479 61.496C219.223 61.256 217.063 60.848 214.999 60.272C212.983 59.744 211.11 59.024 209.382 58.112C207.654 57.2 206.118 56.072 204.774 54.728C202.038 52.376 199.783 50.144 198.007 48.032C196.279 45.872 194.91 43.712 193.902 41.552C192.894 39.392 192.174 37.208 191.742 35C191.358 32.744 191.167 30.344 191.167 27.8V0.728027Z" fill="#38582F"/>
<path d="M302.755 10.952C299.923 10.952 297.283 11.264 294.835 11.888C292.435 12.464 290.347 13.424 288.571 14.768C286.795 16.064 285.379 17.792 284.323 19.952C283.315 22.112 282.811 24.728 282.811 27.8C282.811 30.92 283.315 33.56 284.323 35.72C285.379 37.832 286.795 39.56 288.571 40.904C290.347 42.248 292.435 43.208 294.835 43.784C297.283 44.36 299.923 44.648 302.755 44.648H310.603C313.963 44.648 317.227 44.144 320.395 43.136C323.611 42.08 326.371 40.256 328.675 37.664L333.283 40.544C331.939 42.416 330.403 43.928 328.675 45.08C326.947 46.184 325.099 47.024 323.131 47.6C321.163 48.176 319.099 48.56 316.939 48.752C314.827 48.944 312.715 49.04 310.603 49.04H302.755C299.251 49.04 295.987 48.68 292.963 47.96C289.987 47.192 287.395 45.968 285.187 44.288C283.027 42.56 281.323 40.352 280.075 37.664C278.875 34.976 278.275 31.688 278.275 27.8C278.275 23.912 278.875 20.624 280.075 17.936C281.323 15.248 283.027 13.064 285.187 11.384C287.395 9.65603 289.987 8.43203 292.963 7.71203C295.987 6.94403 299.251 6.56003 302.755 6.56003H310.603C312.715 6.56003 314.827 6.65603 316.939 6.84803C319.099 7.04003 321.163 7.42403 323.131 8.00003C325.099 8.57603 326.947 9.44003 328.675 10.592C330.403 11.696 331.939 13.184 333.283 15.056L328.675 17.936C326.371 15.344 323.611 13.544 320.395 12.536C317.227 11.48 313.963 10.952 310.603 10.952H302.755ZM310.603 14.984C314.059 14.984 317.227 15.632 320.107 16.928C322.987 18.176 325.435 20.24 327.451 23.12L338.899 16.352C337.267 13.568 335.443 11.288 333.427 9.51203C331.411 7.68803 329.203 6.27203 326.803 5.26402C324.451 4.20802 321.907 3.48802 319.171 3.10403C316.483 2.72003 313.627 2.52803 310.603 2.52803H302.755C298.579 2.52803 294.739 3.00803 291.235 3.96802C287.779 4.88002 284.779 6.34403 282.235 8.36003C279.739 10.376 277.771 12.992 276.331 16.208C274.939 19.376 274.243 23.24 274.243 27.8C274.243 32.36 274.939 36.248 276.331 39.464C277.771 42.632 279.739 45.224 282.235 47.24C284.779 49.256 287.779 50.744 291.235 51.704C294.739 52.616 298.579 53.072 302.755 53.072H310.603C313.627 53.072 316.483 52.88 319.171 52.496C321.907 52.112 324.451 51.416 326.803 50.408C329.203 49.352 331.411 47.936 333.427 46.16C335.443 44.384 337.267 42.08 338.899 39.248L327.451 32.48C325.435 35.36 322.987 37.448 320.107 38.744C317.227 39.992 314.059 40.616 310.603 40.616H302.755C300.595 40.616 298.555 40.4 296.635 39.968C294.715 39.536 293.035 38.84 291.595 37.88C290.155 36.872 289.003 35.552 288.139 33.92C287.275 32.288 286.843 30.248 286.843 27.8C286.843 25.4 287.275 23.384 288.139 21.752C289.003 20.12 290.155 18.8 291.595 17.792C293.083 16.784 294.787 16.064 296.707 15.632C298.627 15.2 300.643 14.984 302.755 14.984H310.603ZM285.043 54.008C282.307 51.608 280.123 49.376 278.491 47.312C276.859 45.2 275.587 43.136 274.675 41.12C273.763 39.056 273.163 36.944 272.875 34.784C272.587 32.624 272.443 30.296 272.443 27.8C272.443 22.904 273.187 18.752 274.675 15.344C276.163 11.888 278.251 9.08003 280.939 6.92002C283.627 4.76002 286.819 3.20002 290.515 2.24003C294.259 1.23203 298.339 0.728027 302.755 0.728027H310.603C313.339 0.728027 315.955 0.848027 318.451 1.08803C320.995 1.28003 323.515 1.85603 326.011 2.81603C328.507 3.77603 331.051 5.21603 333.643 7.13603C336.235 9.05603 339.019 11.72 341.995 15.128C342.475 15.656 343.003 16.28 343.579 17C344.155 17.72 344.707 18.488 345.235 19.304C345.763 20.12 346.291 20.96 346.819 21.824C347.347 22.64 347.827 23.408 348.259 24.128L334.219 32.408L328.747 26.936C327.067 25.832 325.315 25.04 323.491 24.56C321.667 24.032 319.771 23.768 317.803 23.768H309.955C308.035 23.768 306.211 23.96 304.483 24.344C302.755 24.728 301.219 25.352 299.875 26.216C298.579 27.08 297.547 28.232 296.779 29.672C296.011 31.112 295.627 32.888 295.627 35C295.627 36.152 295.723 37.112 295.915 37.88C296.923 38.216 298.003 38.456 299.155 38.6C300.307 38.744 301.507 38.816 302.755 38.816H310.603C313.771 38.816 316.747 38.144 319.531 36.8C322.363 35.456 324.859 33.224 327.019 30.104L341.419 38.6L348.259 45.872C346.339 49.136 344.251 51.8 341.995 53.864C339.787 55.928 337.411 57.536 334.867 58.688C332.323 59.888 329.635 60.704 326.803 61.136C323.971 61.616 320.971 61.856 317.803 61.856H309.955C307.507 61.856 305.083 61.688 302.683 61.352C300.331 61.064 298.051 60.584 295.843 59.912C293.683 59.288 291.667 58.472 289.795 57.464C287.971 56.504 286.387 55.352 285.043 54.008Z" fill="#38582F"/>
<path d="M405.64 33.416L390.448 11.888L374.896 33.416H405.64ZM397.864 29.528H382.6L390.304 18.728L397.864 29.528ZM416.368 49.04L408.592 37.88H371.8C370.456 39.704 369.136 41.576 367.84 43.496C366.592 45.368 365.296 47.216 363.952 49.04H358.192C363.28 41.888 368.344 34.808 373.384 27.8C378.472 20.792 383.536 13.712 388.576 6.56003H392.032L421.768 49.04H416.368ZM386.632 2.52803L350.632 53.072H365.896L373.816 41.912H406.36L414.208 53.072H429.472L394.192 2.52803H386.632ZM402.256 8.14403L439.696 61.856H420.544L413.272 54.872L410.32 50.696H381.88C381.304 51.56 380.656 52.472 379.936 53.432C379.264 54.392 378.568 55.352 377.848 56.312C377.176 57.32 376.504 58.28 375.832 59.192C375.16 60.152 374.536 61.04 373.96 61.856H354.736L347.104 54.872L385.696 0.728027H395.128L402.256 8.14403Z" fill="#38582F"/>
<path d="M30.4895 49.04V10.952H6.3695V6.56003H59.0015V10.952H34.8095V49.04H30.4895ZM38.7695 53.072V14.984H62.9615V2.52803H2.4095V14.984H26.5295V53.072H38.7695ZM0.609497 16.784V0.728027H64.7615L71.7455 8.14403V23.768H47.5535V61.856H32.1455L24.7295 54.872V23.768H8.0255L0.609497 16.784Z" fill="#38582F"/>
<path d="M83.7616 6.56003H88.0816V49.04H83.7616V6.56003ZM92.0416 2.52803H79.8016V53.072H92.0416V2.52803ZM78.0016 54.872V0.728027H93.8416L100.826 8.14403V61.856H85.4176L78.0016 54.872Z" fill="#38582F"/>
<path d="M143.212 44.648C145.996 44.648 148.588 44.36 150.988 43.784C153.436 43.16 155.548 42.2 157.324 40.904C159.148 39.56 160.564 37.832 161.572 35.72C162.58 33.56 163.084 30.92 163.084 27.8V6.56003H167.692V27.8C167.692 32.168 166.972 35.744 165.532 38.528C164.092 41.264 162.148 43.424 159.7 45.008C157.252 46.544 154.372 47.6 151.06 48.176C147.796 48.752 144.34 49.04 140.692 49.04C138.58 49.04 136.444 48.944 134.284 48.752C132.172 48.56 130.132 48.176 128.164 47.6C126.196 47.024 124.324 46.184 122.548 45.08C120.82 43.928 119.284 42.416 117.94 40.544L122.692 37.664C123.988 39.248 125.428 40.496 127.012 41.408C128.596 42.32 130.276 43.016 132.052 43.496C133.828 43.976 135.652 44.288 137.524 44.432C139.396 44.576 141.292 44.648 143.212 44.648ZM140.692 40.616C137.236 40.616 134.044 39.992 131.116 38.744C128.236 37.448 125.788 35.36 123.772 32.48L112.468 39.248C114.244 42.416 116.236 44.912 118.444 46.736C120.652 48.56 123.052 49.952 125.644 50.912C128.236 51.824 130.996 52.424 133.924 52.712C136.852 52.952 139.948 53.072 143.212 53.072C147.388 53.072 151.204 52.616 154.66 51.704C158.116 50.744 161.092 49.256 163.588 47.24C166.132 45.224 168.1 42.632 169.492 39.464C170.884 36.248 171.58 32.36 171.58 27.8V2.52803H159.124V27.8C159.124 30.68 158.596 32.96 157.54 34.64C156.484 36.32 155.092 37.616 153.364 38.528C151.636 39.392 149.668 39.968 147.46 40.256C145.252 40.496 142.996 40.616 140.692 40.616ZM140.692 38.816C142.756 38.816 144.772 38.696 146.74 38.456C148.756 38.216 150.532 37.736 152.068 37.016C153.652 36.248 154.924 35.144 155.884 33.704C156.844 32.216 157.324 30.248 157.324 27.8V0.728027H173.38L180.364 8.14403V35C180.364 39.848 179.62 43.976 178.132 47.384C176.692 50.792 174.628 53.552 171.94 55.664C169.3 57.824 166.132 59.384 162.436 60.344C158.788 61.352 154.78 61.856 150.412 61.856C147.724 61.856 145.108 61.76 142.564 61.568C140.068 61.424 137.644 61.064 135.292 60.488C132.988 59.912 130.756 59.072 128.596 57.968C126.484 56.912 124.492 55.448 122.62 53.576C120.604 51.752 118.924 50.144 117.58 48.752C116.284 47.36 115.18 46.088 114.268 44.936C113.356 43.784 112.588 42.704 111.964 41.696C111.292 40.688 110.644 39.632 110.02 38.528L124.204 30.104C124.54 30.632 124.924 31.16 125.356 31.688C125.74 32.168 126.172 32.696 126.652 33.272C127.18 33.848 127.78 34.4 128.452 34.928C130.18 36.272 132.1 37.256 134.212 37.88C136.372 38.504 138.532 38.816 140.692 38.816Z" fill="#38582F"/>
<path d="M201.535 6.56003V27.8C201.535 30.92 202.038 33.56 203.046 35.72C204.054 37.832 205.447 39.56 207.223 40.904C209.047 42.2 211.159 43.16 213.559 43.784C215.958 44.36 218.574 44.648 221.406 44.648H229.327C232.111 44.648 234.702 44.36 237.102 43.784C239.55 43.16 241.662 42.2 243.438 40.904C245.262 39.56 246.678 37.832 247.686 35.72C248.742 33.56 249.271 30.92 249.271 27.8V6.56003H253.807V27.8C253.807 31.688 253.182 34.976 251.934 37.664C250.686 40.352 248.958 42.56 246.751 44.288C244.59 45.968 242.022 47.192 239.046 47.96C236.07 48.68 232.831 49.04 229.327 49.04H221.406C217.902 49.04 214.639 48.68 211.615 47.96C208.639 47.192 206.047 45.968 203.839 44.288C201.678 42.56 199.975 40.352 198.727 37.664C197.527 34.976 196.926 31.688 196.926 27.8V6.56003H201.535ZM192.966 27.8C192.966 32.36 193.663 36.248 195.055 39.464C196.447 42.632 198.39 45.224 200.886 47.24C203.43 49.256 206.43 50.744 209.886 51.704C213.39 52.616 217.23 53.072 221.406 53.072H229.327C233.503 53.072 237.319 52.616 240.775 51.704C244.279 50.744 247.279 49.256 249.775 47.24C252.319 45.224 254.286 42.632 255.678 39.464C257.07 36.248 257.767 32.36 257.767 27.8V2.52803H245.238V27.8C245.238 30.248 244.807 32.288 243.943 33.92C243.079 35.552 241.926 36.872 240.486 37.88C239.046 38.84 237.367 39.536 235.447 39.968C233.527 40.4 231.487 40.616 229.327 40.616H221.406C219.246 40.616 217.206 40.4 215.286 39.968C213.367 39.536 211.687 38.816 210.247 37.808C208.807 36.8 207.654 35.48 206.79 33.848C205.975 32.216 205.566 30.2 205.566 27.8V2.52803H192.966V27.8ZM191.167 0.728027H207.367L214.35 8.14403V35C214.35 35.528 214.35 36.032 214.35 36.512C214.398 36.992 214.471 37.448 214.566 37.88C216.583 38.504 218.862 38.816 221.406 38.816H229.327C231.199 38.816 232.974 38.648 234.654 38.312C236.382 37.928 237.895 37.304 239.19 36.44C240.486 35.576 241.518 34.448 242.286 33.056C243.055 31.664 243.438 29.912 243.438 27.8V0.728027H259.566L266.551 8.14403V35C266.551 39.848 265.807 43.976 264.319 47.384C262.831 50.792 260.767 53.552 258.126 55.664C255.486 57.824 252.318 59.384 248.622 60.344C244.926 61.352 240.895 61.856 236.527 61.856H228.607C226.159 61.856 223.783 61.736 221.479 61.496C219.223 61.256 217.062 60.848 214.999 60.272C212.982 59.744 211.11 59.024 209.382 58.112C207.654 57.2 206.118 56.072 204.774 54.728C202.038 52.376 199.783 50.144 198.007 48.032C196.279 45.872 194.91 43.712 193.902 41.552C192.895 39.392 192.174 37.208 191.742 35C191.358 32.744 191.167 30.344 191.167 27.8V0.728027Z" fill="#38582F"/>
<path d="M302.755 10.952C299.923 10.952 297.283 11.264 294.835 11.888C292.435 12.464 290.347 13.424 288.571 14.768C286.795 16.064 285.379 17.792 284.323 19.952C283.315 22.112 282.811 24.728 282.811 27.8C282.811 30.92 283.315 33.56 284.323 35.72C285.379 37.832 286.795 39.56 288.571 40.904C290.347 42.248 292.435 43.208 294.835 43.784C297.283 44.36 299.923 44.648 302.755 44.648H310.603C313.963 44.648 317.227 44.144 320.395 43.136C323.611 42.08 326.371 40.256 328.675 37.664L333.283 40.544C331.939 42.416 330.403 43.928 328.675 45.08C326.947 46.184 325.099 47.024 323.131 47.6C321.163 48.176 319.099 48.56 316.939 48.752C314.827 48.944 312.715 49.04 310.603 49.04H302.755C299.251 49.04 295.987 48.68 292.963 47.96C289.987 47.192 287.395 45.968 285.187 44.288C283.027 42.56 281.323 40.352 280.075 37.664C278.875 34.976 278.275 31.688 278.275 27.8C278.275 23.912 278.875 20.624 280.075 17.936C281.323 15.248 283.027 13.064 285.187 11.384C287.395 9.65603 289.987 8.43203 292.963 7.71203C295.987 6.94403 299.251 6.56003 302.755 6.56003H310.603C312.715 6.56003 314.827 6.65603 316.939 6.84803C319.099 7.04003 321.163 7.42403 323.131 8.00003C325.099 8.57603 326.947 9.44003 328.675 10.592C330.403 11.696 331.939 13.184 333.283 15.056L328.675 17.936C326.371 15.344 323.611 13.544 320.395 12.536C317.227 11.48 313.963 10.952 310.603 10.952H302.755ZM310.603 14.984C314.059 14.984 317.227 15.632 320.107 16.928C322.987 18.176 325.435 20.24 327.451 23.12L338.899 16.352C337.267 13.568 335.443 11.288 333.427 9.51203C331.411 7.68803 329.203 6.27203 326.803 5.26402C324.451 4.20802 321.907 3.48802 319.171 3.10403C316.483 2.72003 313.627 2.52803 310.603 2.52803H302.755C298.579 2.52803 294.739 3.00803 291.235 3.96802C287.779 4.88002 284.779 6.34403 282.235 8.36003C279.739 10.376 277.771 12.992 276.331 16.208C274.939 19.376 274.243 23.24 274.243 27.8C274.243 32.36 274.939 36.248 276.331 39.464C277.771 42.632 279.739 45.224 282.235 47.24C284.779 49.256 287.779 50.744 291.235 51.704C294.739 52.616 298.579 53.072 302.755 53.072H310.603C313.627 53.072 316.483 52.88 319.171 52.496C321.907 52.112 324.451 51.416 326.803 50.408C329.203 49.352 331.411 47.936 333.427 46.16C335.443 44.384 337.267 42.08 338.899 39.248L327.451 32.48C325.435 35.36 322.987 37.448 320.107 38.744C317.227 39.992 314.059 40.616 310.603 40.616H302.755C300.595 40.616 298.555 40.4 296.635 39.968C294.715 39.536 293.035 38.84 291.595 37.88C290.155 36.872 289.003 35.552 288.139 33.92C287.275 32.288 286.843 30.248 286.843 27.8C286.843 25.4 287.275 23.384 288.139 21.752C289.003 20.12 290.155 18.8 291.595 17.792C293.083 16.784 294.787 16.064 296.707 15.632C298.627 15.2 300.643 14.984 302.755 14.984H310.603ZM285.043 54.008C282.307 51.608 280.123 49.376 278.491 47.312C276.859 45.2 275.587 43.136 274.675 41.12C273.763 39.056 273.163 36.944 272.875 34.784C272.587 32.624 272.443 30.296 272.443 27.8C272.443 22.904 273.187 18.752 274.675 15.344C276.163 11.888 278.251 9.08003 280.939 6.92002C283.627 4.76002 286.819 3.20002 290.515 2.24003C294.259 1.23203 298.339 0.728027 302.755 0.728027H310.603C313.339 0.728027 315.955 0.848027 318.451 1.08803C320.995 1.28003 323.515 1.85603 326.011 2.81603C328.507 3.77603 331.051 5.21603 333.643 7.13603C336.235 9.05603 339.019 11.72 341.995 15.128C342.475 15.656 343.003 16.28 343.579 17C344.155 17.72 344.707 18.488 345.235 19.304C345.763 20.12 346.291 20.96 346.819 21.824C347.347 22.64 347.827 23.408 348.259 24.128L334.219 32.408L328.747 26.936C327.067 25.832 325.315 25.04 323.491 24.56C321.667 24.032 319.771 23.768 317.803 23.768H309.955C308.035 23.768 306.211 23.96 304.483 24.344C302.755 24.728 301.219 25.352 299.875 26.216C298.579 27.08 297.547 28.232 296.779 29.672C296.011 31.112 295.627 32.888 295.627 35C295.627 36.152 295.723 37.112 295.915 37.88C296.923 38.216 298.003 38.456 299.155 38.6C300.307 38.744 301.507 38.816 302.755 38.816H310.603C313.771 38.816 316.747 38.144 319.531 36.8C322.363 35.456 324.859 33.224 327.019 30.104L341.419 38.6L348.259 45.872C346.339 49.136 344.251 51.8 341.995 53.864C339.787 55.928 337.411 57.536 334.867 58.688C332.323 59.888 329.635 60.704 326.803 61.136C323.971 61.616 320.971 61.856 317.803 61.856H309.955C307.507 61.856 305.083 61.688 302.683 61.352C300.331 61.064 298.051 60.584 295.843 59.912C293.683 59.288 291.667 58.472 289.795 57.464C287.971 56.504 286.387 55.352 285.043 54.008Z" fill="#38582F"/>
<path d="M405.64 33.416L390.448 11.888L374.896 33.416H405.64ZM397.864 29.528H382.6L390.304 18.728L397.864 29.528ZM416.368 49.04L408.592 37.88H371.8C370.456 39.704 369.136 41.576 367.84 43.496C366.592 45.368 365.296 47.216 363.952 49.04H358.192C363.28 41.888 368.344 34.808 373.384 27.8C378.472 20.792 383.536 13.712 388.576 6.56003H392.032L421.768 49.04H416.368ZM386.632 2.52803L350.632 53.072H365.896L373.816 41.912H406.36L414.208 53.072H429.472L394.192 2.52803H386.632ZM402.256 8.14403L439.696 61.856H420.544L413.272 54.872L410.32 50.696H381.88C381.304 51.56 380.656 52.472 379.936 53.432C379.264 54.392 378.568 55.352 377.848 56.312C377.176 57.32 376.504 58.28 375.832 59.192C375.16 60.152 374.536 61.04 373.96 61.856H354.736L347.104 54.872L385.696 0.728027H395.128L402.256 8.14403Z" fill="#38582F"/>
<path d="M16.384 104.844V103.44H3.07203V91.116H18.308L18.828 89.712H1.56403V118H3.07203V104.844H16.384Z" fill="#38582F"/>
<path d="M25.7867 118H42.4787V116.596H27.2947V89.712H25.7867V118Z" fill="#38582F"/>
<path d="M47.0067 103.856C47.0067 112.072 53.7147 118.728 61.8267 118.728C69.9907 118.728 76.7507 112.124 76.7507 103.856C76.7507 95.64 70.0427 88.984 61.9307 88.984C53.7667 88.984 47.0067 95.588 47.0067 103.856ZM48.5147 103.804C48.5147 96.472 54.5467 90.388 61.8787 90.388C69.1068 90.388 75.2427 96.368 75.2427 103.908C75.2427 111.24 69.2107 117.324 61.8787 117.324C54.6507 117.324 48.5147 111.344 48.5147 103.804Z" fill="#38582F"/>
<path d="M104.955 118H106.931L95.2827 105.572C99.6507 105 103.239 101.932 103.239 97.616C103.239 92.468 99.2346 89.712 94.2427 89.712H85.4547V118H86.9627V105.728H93.5146L104.955 118ZM94.1386 91.116C98.5066 91.116 101.731 93.56 101.731 97.668C101.731 101.672 97.8827 104.324 93.9827 104.324H86.9627V91.116H94.1386Z" fill="#38582F"/>
<path d="M113.74 118H130.744L131.264 116.596H115.248V104.324H128.82V102.92H115.248V91.116H131.16L130.64 89.712H113.74V118Z" fill="#38582F"/>
<path d="M138.037 96.212C138.037 100.268 140.949 102.14 146.565 104.272C152.025 106.3 154.573 107.964 154.573 111.292C154.573 114.776 150.933 117.064 146.877 117.064C143.289 117.064 139.701 115.504 136.789 112.748L136.685 112.8L137.153 114.932C139.545 116.856 142.925 118.468 146.825 118.468C151.765 118.468 156.081 115.608 156.081 111.188C156.081 107.028 153.117 105.052 147.449 102.92C142.041 100.84 139.545 99.332 139.545 96.108C139.545 92.832 142.821 90.648 146.461 90.648C149.997 90.648 152.545 92.052 154.885 93.924H154.989V92.052C152.961 90.596 150.361 89.244 146.617 89.244C141.885 89.244 138.037 92.104 138.037 96.212Z" fill="#38582F"/>
<path d="M186.783 91.116V89.712H160.731V91.116H173.003V118H174.511V91.116H186.783Z" fill="#38582F"/>
<path d="M186.693 118H188.253L192.257 109.68H210.145L214.149 118H215.813L202.085 89.452H200.525L186.693 118ZM192.933 108.276L201.201 91.064L209.469 108.276H192.933Z" fill="#38582F"/>
<path d="M232.396 118H233.956L237.96 109.68H255.848L259.852 118H261.516L247.788 89.452H246.228L232.396 118ZM238.636 108.276L246.904 91.064L255.172 108.276H238.636Z" fill="#38582F"/>
<path d="M289.189 118H291.165L279.517 105.572C283.885 105 287.473 101.932 287.473 97.616C287.473 92.468 283.469 89.712 278.477 89.712H269.689V118H271.197V105.728H277.749L289.189 118ZM278.373 91.116C282.741 91.116 285.965 93.56 285.965 97.668C285.965 101.672 282.117 104.324 278.217 104.324H271.197V91.116H278.373Z" fill="#38582F"/>
<path d="M323.46 124.396L323.876 122.992L323.772 122.888C322.524 123.148 321.432 123.252 320.444 123.252C316.284 123.252 313.892 121.692 311.968 118.624C319.248 117.688 325.02 111.5 325.02 103.856C325.02 95.64 318.312 88.984 310.2 88.984C302.036 88.984 295.276 95.588 295.276 103.856C295.276 112.02 301.932 118.676 309.992 118.728C312.332 122.576 315.504 124.708 320.34 124.708C321.328 124.708 322.316 124.604 323.46 124.396ZM296.784 103.804C296.784 96.472 302.816 90.388 310.148 90.388C317.376 90.388 323.512 96.368 323.512 103.908C323.512 111.24 317.48 117.324 310.148 117.324C302.92 117.324 296.784 111.344 296.784 103.804Z" fill="#38582F"/>
<path d="M333.256 106.664C333.256 113.996 337.936 118.572 345.06 118.572C352.132 118.572 356.916 114.1 356.916 106.664V89.712H355.408V106.768C355.408 113.424 351.144 117.168 345.112 117.168C339.028 117.168 334.764 113.372 334.764 106.872V89.712H333.256V106.664Z" fill="#38582F"/>
<path d="M367.855 118H369.363V89.712H367.855V118Z" fill="#38582F"/>
<path d="M405.812 89.712H404.252L391.72 115.816L379.24 89.712H377.576L391.46 118.468H391.876L405.812 89.712Z" fill="#38582F"/>
<path d="M410.296 103.856C410.296 112.072 417.004 118.728 425.116 118.728C433.28 118.728 440.04 112.124 440.04 103.856C440.04 95.64 433.332 88.984 425.22 88.984C417.056 88.984 410.296 95.588 410.296 103.856ZM411.804 103.804C411.804 96.472 417.836 90.388 425.168 90.388C432.396 90.388 438.532 96.368 438.532 103.908C438.532 111.24 432.5 117.324 425.168 117.324C417.94 117.324 411.804 111.344 411.804 103.804Z" fill="#38582F"/>
</svg>
